<svg width="953" height="636" viewBox="0 0 953 636" fill="none" xmlns="http://www.w3.org/2000/svg">
<path d="M578.849 818.282L59.0856 584.14C9.47499 561.79 -12.6323 503.459 9.71772 453.849L243.86 -65.9144C266.21 -115.525 324.541 -137.632 374.151 -115.282L893.914 118.86C943.525 141.21 965.632 199.541 943.282 249.151L709.14 768.914C686.79 818.525 628.459 840.632 578.849 818.282Z" stroke="url(#paint0_linear_1106_1244)" stroke-width="2" stroke-miterlimit="10" style="mix-blend-mode:color-dodge"/>
<path d="M570.11 802.99L71.5769 573.665C23.2173 551.035 2.36109 493.47 24.9911 445.11L254.335 -53.4231C276.965 -101.783 334.53 -122.639 382.89 -100.009L881.423 129.317C929.783 151.947 950.639 209.511 928.009 257.871L698.683 756.404C676.053 804.764 618.489 825.62 570.129 802.99H570.11Z" stroke="url(#paint1_linear_1106_1244)" stroke-width="2" stroke-miterlimit="10" style="mix-blend-mode:color-dodge"/>
<path d="M561.372 787.698L84.087 563.19C36.9784 540.261 17.3731 483.499 40.2832 436.372L264.81 -40.913C287.739 -88.0216 344.501 -107.627 391.628 -84.7168L868.913 139.791C916.022 162.72 935.627 219.482 912.717 266.609L688.209 743.894C665.28 791.003 608.518 810.608 561.391 787.698H561.372Z" stroke="url(#paint2_linear_1106_1244)" stroke-width="2" stroke-miterlimit="10" style="mix-blend-mode:color-dodge"/>
<path d="M552.634 772.406L96.5783 552.697C50.7207 529.488 32.3478 473.491 55.5567 427.634L275.285 -28.403C298.494 -74.2606 354.49 -92.6335 400.348 -69.4247L856.403 150.285C902.261 173.494 920.634 229.49 897.425 275.348L677.715 731.403C654.506 777.261 598.51 795.634 552.652 772.425L552.634 772.406Z" stroke="url(#paint3_linear_1106_1244)" stroke-width="2" stroke-miterlimit="10" style="mix-blend-mode:color-dodge"/>
<path d="M543.914 757.133L109.107 542.24C64.5004 518.733 47.3785 463.521 70.8674 418.914L285.76 -15.9117C309.267 -60.5183 364.479 -77.6402 409.086 -54.1512L843.893 160.741C888.5 184.249 905.622 239.461 882.133 284.067L667.24 718.874C643.733 763.481 588.521 780.603 543.914 757.114V757.133Z" stroke="url(#paint4_linear_1106_1244)" stroke-width="2" stroke-miterlimit="10" style="mix-blend-mode:color-dodge"/>
<path d="M535.176 741.841L121.598 531.766C78.2241 507.978 62.3531 453.531 86.1408 410.176L296.216 -3.40166C320.003 -46.7759 374.45 -62.6469 417.806 -38.8592L831.383 171.216C874.757 195.003 890.628 249.45 866.841 292.806L656.766 706.383C632.978 749.757 578.531 765.628 535.176 741.841Z" stroke="url(#paint5_linear_1106_1244)" stroke-width="2" stroke-miterlimit="10" style="mix-blend-mode:color-dodge"/>
<path d="M526.437 726.548L134.108 521.291C91.9851 497.223 77.3652 443.561 101.433 401.437L306.691 9.10837C330.758 -33.0149 384.421 -47.6348 426.544 -23.5671L818.873 181.691C860.996 205.758 875.616 259.421 851.548 301.544L646.291 693.873C622.223 735.996 568.561 750.616 526.437 726.548Z" stroke="url(#paint6_linear_1106_1244)" stroke-width="2" stroke-miterlimit="10" style="mix-blend-mode:color-dodge"/>
<path d="M517.699 711.275L146.6 510.835C105.727 486.468 92.3585 433.59 116.706 392.718L317.147 21.6184C341.513 -19.2539 394.391 -32.6228 435.264 -8.27496L806.363 192.165C847.235 216.532 860.604 269.41 836.256 310.282L635.816 681.382C611.449 722.254 558.571 735.623 517.699 711.275Z" stroke="url(#paint7_linear_1106_1244)" stroke-width="2" stroke-miterlimit="10" style="mix-blend-mode:color-dodge"/>
<path d="M508.961 695.983L159.11 500.341C119.488 475.695 107.352 423.582 131.998 383.961L327.64 34.1097C352.287 -5.51156 404.399 -17.6481 444.021 6.99846L793.872 202.64C833.493 227.287 845.629 279.399 820.983 319.021L625.341 668.872C600.695 708.493 548.582 720.629 508.961 695.983Z" stroke="url(#paint8_linear_1106_1244)" stroke-width="2" stroke-miterlimit="10" style="mix-blend-mode:color-dodge"/>
<path d="M500.222 680.691L171.62 489.866C133.249 464.921 122.364 413.593 147.291 375.222L338.115 46.6197C363.06 8.24945 414.389 -2.63613 452.759 22.2905L781.362 213.115C819.732 238.06 830.617 289.389 805.691 327.759L614.866 656.362C589.921 694.732 538.593 705.617 500.222 680.691Z" stroke="url(#paint9_linear_1106_1244)" stroke-width="2" stroke-miterlimit="10" style="mix-blend-mode:color-dodge"/>
<path d="M491.503 665.399L184.13 479.392C147.01 454.166 137.357 403.622 162.583 366.484L348.59 59.1111C373.815 21.9918 424.359 12.3385 461.479 37.564L768.852 223.571C805.971 248.797 815.624 299.341 790.399 336.46L604.392 643.833C579.166 680.952 528.622 690.605 491.484 665.38L491.503 665.399Z" stroke="url(#paint10_linear_1106_1244)" stroke-width="2" stroke-miterlimit="10" style="mix-blend-mode:color-dodge"/>
<path d="M482.764 650.125L196.64 468.935C160.771 443.411 152.369 393.651 177.875 357.783L359.065 71.6584C384.589 35.7902 434.349 27.3879 470.217 52.8934L756.342 234.083C792.21 259.607 800.612 309.367 775.107 345.236L593.917 631.36C568.393 667.229 518.633 675.631 482.764 650.125Z" stroke="url(#paint11_linear_1106_1244)" stroke-width="2" stroke-miterlimit="10" style="mix-blend-mode:color-dodge"/>
<path d="M474.026 634.833L209.131 458.442C174.495 432.638 167.344 383.643 193.148 349.026L369.539 84.1311C395.344 49.4952 444.338 42.3439 478.955 68.1482L743.85 244.539C778.486 270.344 785.637 319.338 759.833 353.955L583.442 618.85C557.638 653.486 508.643 660.637 474.026 634.833Z" stroke="url(#paint12_linear_1106_1244)" stroke-width="2" stroke-miterlimit="10" style="mix-blend-mode:color-dodge"/>
<path d="M465.288 619.541L221.641 447.967C188.256 421.883 182.356 373.673 208.44 340.288L380.014 96.6411C406.099 63.2562 454.309 57.3559 487.694 83.4402L731.34 255.014C764.725 281.099 770.625 329.309 744.541 362.694L572.967 606.34C546.883 639.725 498.673 645.625 465.288 619.541Z" stroke="url(#paint13_linear_1106_1244)" stroke-width="2" stroke-miterlimit="10" style="mix-blend-mode:color-dodge"/>
<path d="M456.549 604.249L234.132 437.492C201.999 411.109 197.349 363.683 223.714 331.549L390.47 109.132C416.853 76.9985 464.279 72.3493 496.413 98.7137L718.83 265.47C750.964 291.853 755.613 339.279 729.249 371.413L562.492 593.83C536.109 625.964 488.683 630.613 456.549 604.249Z" stroke="url(#paint14_linear_1106_1244)" stroke-width="2" stroke-miterlimit="10" style="mix-blend-mode:color-dodge"/>
<path d="M447.83 588.976L246.661 427.036C215.778 400.373 212.361 353.713 239.024 322.83L400.964 121.661C427.627 90.7782 474.287 87.3613 505.17 114.024L706.339 275.964C737.222 302.627 740.639 349.287 713.976 380.17L552.036 581.339C525.373 612.222 478.713 615.639 447.83 588.976Z" stroke="url(#paint15_linear_1106_1244)" stroke-width="2" stroke-miterlimit="10" style="mix-blend-mode:color-dodge"/>
<path d="M439.091 573.684L259.152 416.543C229.521 389.581 227.355 343.705 254.298 314.073L411.439 134.134C438.401 104.502 484.277 102.336 513.909 129.279L693.848 286.42C723.479 313.382 725.645 359.258 698.702 388.89L541.561 568.829C514.6 598.461 468.723 600.627 439.091 573.684Z" stroke="url(#paint16_linear_1106_1244)" stroke-width="2" stroke-miterlimit="10" style="mix-blend-mode:color-dodge"/>
<path d="M681.299 296.946L522.612 144.611C494.232 117.367 449.14 118.288 421.896 146.668L269.561 305.355C242.317 333.735 243.238 378.827 271.618 406.071L430.305 558.406C458.685 585.65 503.777 584.729 531.021 556.349L683.356 397.662C710.6 369.282 709.679 324.19 681.299 296.946Z" stroke="url(#paint17_linear_1106_1244)" stroke-width="2" stroke-miterlimit="10" style="mix-blend-mode:color-dodge"/>
<defs>
<linearGradient id="paint0_linear_1106_1244" x1="849" y1="594" x2="335" y2="516" gradientUnits="userSpaceOnUse">
<stop stop-color="#744468"/>
<stop offset="0.636808" stop-color="#744468" stop-opacity="0"/>
</linearGradient>
<linearGradient id="paint1_linear_1106_1244" x1="849" y1="594" x2="335" y2="516" gradientUnits="userSpaceOnUse">
<stop stop-color="#744468"/>
<stop offset="0.636808" stop-color="#744468" stop-opacity="0"/>
</linearGradient>
<linearGradient id="paint2_linear_1106_1244" x1="849" y1="594" x2="335" y2="516" gradientUnits="userSpaceOnUse">
<stop stop-color="#744468"/>
<stop offset="0.636808" stop-color="#744468" stop-opacity="0"/>
</linearGradient>
<linearGradient id="paint3_linear_1106_1244" x1="849" y1="594" x2="335" y2="516" gradientUnits="userSpaceOnUse">
<stop stop-color="#744468"/>
<stop offset="0.636808" stop-color="#744468" stop-opacity="0"/>
</linearGradient>
<linearGradient id="paint4_linear_1106_1244" x1="849" y1="594" x2="335" y2="516" gradientUnits="userSpaceOnUse">
<stop stop-color="#744468"/>
<stop offset="0.636808" stop-color="#744468" stop-opacity="0"/>
</linearGradient>
<linearGradient id="paint5_linear_1106_1244" x1="849" y1="594" x2="335" y2="516" gradientUnits="userSpaceOnUse">
<stop stop-color="#744468"/>
<stop offset="0.636808" stop-color="#744468" stop-opacity="0"/>
</linearGradient>
<linearGradient id="paint6_linear_1106_1244" x1="849" y1="594" x2="335" y2="516" gradientUnits="userSpaceOnUse">
<stop stop-color="#744468"/>
<stop offset="0.636808" stop-color="#744468" stop-opacity="0"/>
</linearGradient>
<linearGradient id="paint7_linear_1106_1244" x1="849" y1="594" x2="335" y2="516" gradientUnits="userSpaceOnUse">
<stop stop-color="#744468"/>
<stop offset="0.636808" stop-color="#744468" stop-opacity="0"/>
</linearGradient>
<linearGradient id="paint8_linear_1106_1244" x1="849" y1="594" x2="335" y2="516" gradientUnits="userSpaceOnUse">
<stop stop-color="#744468"/>
<stop offset="0.636808" stop-color="#744468" stop-opacity="0"/>
</linearGradient>
<linearGradient id="paint9_linear_1106_1244" x1="849" y1="594" x2="335" y2="516" gradientUnits="userSpaceOnUse">
<stop stop-color="#744468"/>
<stop offset="0.636808" stop-color="#744468" stop-opacity="0"/>
</linearGradient>
<linearGradient id="paint10_linear_1106_1244" x1="849" y1="594" x2="335" y2="516" gradientUnits="userSpaceOnUse">
<stop stop-color="#744468"/>
<stop offset="0.636808" stop-color="#744468" stop-opacity="0"/>
</linearGradient>
<linearGradient id="paint11_linear_1106_1244" x1="849" y1="594" x2="335" y2="516" gradientUnits="userSpaceOnUse">
<stop stop-color="#744468"/>
<stop offset="0.636808" stop-color="#744468" stop-opacity="0"/>
</linearGradient>
<linearGradient id="paint12_linear_1106_1244" x1="849" y1="594" x2="335" y2="516" gradientUnits="userSpaceOnUse">
<stop stop-color="#744468"/>
<stop offset="0.636808" stop-color="#744468" stop-opacity="0"/>
</linearGradient>
<linearGradient id="paint13_linear_1106_1244" x1="849" y1="594" x2="335" y2="516" gradientUnits="userSpaceOnUse">
<stop stop-color="#744468"/>
<stop offset="0.636808" stop-color="#744468" stop-opacity="0"/>
</linearGradient>
<linearGradient id="paint14_linear_1106_1244" x1="849" y1="594" x2="335" y2="516" gradientUnits="userSpaceOnUse">
<stop stop-color="#744468"/>
<stop offset="0.636808" stop-color="#744468" stop-opacity="0"/>
</linearGradient>
<linearGradient id="paint15_linear_1106_1244" x1="849" y1="594" x2="335" y2="516" gradientUnits="userSpaceOnUse">
<stop stop-color="#744468"/>
<stop offset="0.636808" stop-color="#744468" stop-opacity="0"/>
</linearGradient>
<linearGradient id="paint16_linear_1106_1244" x1="849" y1="594" x2="335" y2="516" gradientUnits="userSpaceOnUse">
<stop stop-color="#744468"/>
<stop offset="0.636808" stop-color="#744468" stop-opacity="0"/>
</linearGradient>
<linearGradient id="paint17_linear_1106_1244" x1="849" y1="594" x2="335" y2="516" gradientUnits="userSpaceOnUse">
<stop stop-color="#744468"/>
<stop offset="0.636808" stop-color="#744468" stop-opacity="0"/>
</linearGradient>
</defs>
</svg>
