<svg width="1215" height="636" viewBox="0 0 1215 636" fill="none" xmlns="http://www.w3.org/2000/svg">
<path d="M738.046 725.881L75.0882 427.232C11.8098 398.724 -16.3879 324.324 12.1195 261.046L310.768 -401.912C339.276 -465.19 413.676 -493.388 476.954 -464.881L1139.91 -166.232C1203.19 -137.724 1231.39 -63.324 1202.88 -0.0457196L904.232 662.912C875.724 726.19 801.324 754.388 738.046 725.881Z" stroke="url(#paint0_linear_1106_1241)" stroke-width="2" stroke-miterlimit="10" style="mix-blend-mode:color-dodge"/>
<path d="M726.9 706.375L91.0209 413.871C29.3382 385.006 2.73607 311.583 31.6007 249.9L324.129 -385.979C352.994 -447.662 426.417 -474.264 488.1 -445.399L1123.98 -152.895C1185.66 -124.03 1212.26 -50.6065 1183.4 11.0762L890.895 646.955C862.03 708.638 788.606 735.24 726.924 706.375H726.9Z" stroke="url(#paint1_linear_1106_1241)" stroke-width="2" stroke-miterlimit="10" style="mix-blend-mode:color-dodge"/>
<path d="M715.754 686.87L106.977 400.511C46.8904 371.265 21.8839 298.865 51.1058 238.754L337.49 -370.023C366.735 -430.11 439.135 -455.116 499.246 -425.894L1108.02 -139.534C1168.11 -110.289 1193.12 -37.8889 1163.89 22.2219L877.534 630.999C848.289 691.086 775.889 716.092 715.778 686.87H715.754Z" stroke="url(#paint2_linear_1106_1241)" stroke-width="2" stroke-miterlimit="10" style="mix-blend-mode:color-dodge"/>
<path d="M704.609 667.365L122.91 387.126C64.4187 357.523 40.9841 286.1 70.587 227.609L350.85 -354.066C380.453 -412.557 451.876 -435.992 510.368 -406.389L1092.07 -126.15C1150.56 -96.547 1173.99 -25.1237 1144.39 33.3677L864.15 615.066C834.547 673.557 763.124 696.992 704.632 667.389L704.609 667.365Z" stroke="url(#paint3_linear_1106_1241)" stroke-width="2" stroke-miterlimit="10" style="mix-blend-mode:color-dodge"/>
<path d="M693.487 647.884L138.89 373.789C81.9947 343.805 60.1557 273.382 90.1159 216.487L364.211 -338.133C394.195 -395.029 464.618 -416.868 521.513 -386.908L1076.11 -112.813C1133.01 -82.8291 1154.84 -12.4061 1124.88 44.4896L850.789 599.086C820.805 655.982 750.382 677.82 693.487 647.86V647.884Z" stroke="url(#paint4_linear_1106_1241)" stroke-width="2" stroke-miterlimit="10" style="mix-blend-mode:color-dodge"/>
<path d="M682.341 628.379L154.823 360.429C99.4993 330.087 79.2559 260.641 109.597 205.341L377.548 -322.177C407.889 -377.501 477.335 -397.744 532.635 -367.403L1060.15 -99.4525C1115.48 -69.1113 1135.72 0.335309 1105.38 55.6354L837.429 583.153C807.087 638.477 737.641 658.72 682.341 628.379Z" stroke="url(#paint5_linear_1106_1241)" stroke-width="2" stroke-miterlimit="10" style="mix-blend-mode:color-dodge"/>
<path d="M671.195 608.874L170.78 347.068C117.051 316.37 98.4037 247.923 129.102 194.195L390.908 -306.22C421.607 -359.949 490.053 -378.596 543.781 -347.898L1044.2 -86.0919C1097.92 -55.3934 1116.57 13.0529 1085.87 66.7811L824.068 567.197C793.37 620.925 724.923 639.572 671.195 608.874Z" stroke="url(#paint6_linear_1106_1241)" stroke-width="2" stroke-miterlimit="10" style="mix-blend-mode:color-dodge"/>
<path d="M660.049 589.393L186.712 333.731C134.58 302.652 117.528 235.206 148.583 183.073L404.245 -290.264C435.324 -342.396 502.77 -359.448 554.903 -328.393L1028.24 -72.7312C1080.37 -41.6518 1097.42 25.7943 1066.37 77.9269L810.707 551.264C779.628 603.396 712.182 620.448 660.049 589.393Z" stroke="url(#paint7_linear_1106_1241)" stroke-width="2" stroke-miterlimit="10" style="mix-blend-mode:color-dodge"/>
<path d="M648.904 569.888L202.669 320.347C152.132 288.91 136.652 222.44 168.088 171.904L417.629 -274.331C449.066 -324.868 515.536 -340.348 566.073 -308.912L1012.31 -59.3706C1062.84 -27.9339 1078.32 38.5357 1046.89 89.0726L797.347 535.307C765.91 585.844 699.44 601.324 648.904 569.888Z" stroke="url(#paint8_linear_1106_1241)" stroke-width="2" stroke-miterlimit="10" style="mix-blend-mode:color-dodge"/>
<path d="M637.758 550.383L218.625 306.986C169.684 275.168 155.8 209.699 187.594 160.758L430.99 -258.375C462.808 -307.316 528.277 -321.2 577.218 -289.406L996.351 -46.01C1045.29 -14.1923 1059.18 51.2771 1027.38 100.218L783.986 519.351C752.168 568.292 686.699 582.177 637.758 550.383Z" stroke="url(#paint9_linear_1106_1241)" stroke-width="2" stroke-miterlimit="10" style="mix-blend-mode:color-dodge"/>
<path d="M626.636 530.878L234.582 293.626C187.236 261.451 174.924 196.982 207.099 149.612L444.351 -242.442C476.526 -289.788 540.995 -302.1 588.34 -269.925L980.394 -32.6733C1027.74 -0.498246 1040.05 63.9709 1007.88 111.316L770.626 503.371C738.451 550.716 673.982 563.029 626.612 530.854L626.636 530.878Z" stroke="url(#paint10_linear_1106_1241)" stroke-width="2" stroke-miterlimit="10" style="mix-blend-mode:color-dodge"/>
<path d="M615.49 511.396L250.538 280.289C204.788 247.733 194.071 184.264 226.604 138.514L457.711 -226.438C490.267 -272.188 553.736 -282.905 599.486 -250.373L964.438 -19.265C1010.19 13.2911 1020.9 76.7599 988.373 122.51L757.265 487.462C724.709 533.212 661.24 543.929 615.49 511.396Z" stroke="url(#paint11_linear_1106_1241)" stroke-width="2" stroke-miterlimit="10" style="mix-blend-mode:color-dodge"/>
<path d="M604.344 491.891L266.471 266.904C222.293 233.991 213.172 171.499 246.085 127.344L471.072 -210.529C503.985 -254.707 566.477 -263.828 610.632 -230.915L948.505 -5.9282C992.683 26.9851 1001.8 89.4775 968.891 133.632L743.904 471.505C710.991 515.683 648.499 524.805 604.344 491.891Z" stroke="url(#paint12_linear_1106_1241)" stroke-width="2" stroke-miterlimit="10" style="mix-blend-mode:color-dodge"/>
<path d="M593.199 472.386L282.428 253.544C239.845 220.273 232.319 158.781 265.59 116.199L484.432 -194.572C517.703 -237.155 579.195 -244.681 621.778 -211.41L932.549 7.43241C975.131 40.7029 982.657 102.195 949.386 144.778L730.544 455.549C697.273 498.131 635.781 505.657 593.199 472.386Z" stroke="url(#paint13_linear_1106_1241)" stroke-width="2" stroke-miterlimit="10" style="mix-blend-mode:color-dodge"/>
<path d="M582.053 452.881L298.36 240.183C257.374 206.532 251.443 146.04 285.071 105.053L497.769 -178.64C531.421 -219.626 591.913 -225.557 632.899 -191.929L916.592 20.7692C957.579 54.4208 963.509 114.913 929.881 155.899L717.183 439.592C683.532 480.579 623.04 486.509 582.053 452.881Z" stroke="url(#paint14_linear_1106_1241)" stroke-width="2" stroke-miterlimit="10" style="mix-blend-mode:color-dodge"/>
<path d="M570.931 433.4L314.341 226.846C274.949 192.838 270.591 133.322 304.6 93.931L511.154 -162.659C545.162 -202.051 604.678 -206.409 644.069 -172.4L900.659 34.1536C940.051 68.1624 944.409 127.678 910.4 167.069L703.846 423.659C669.838 463.051 610.322 467.409 570.931 433.4Z" stroke="url(#paint15_linear_1106_1241)" stroke-width="2" stroke-miterlimit="10" style="mix-blend-mode:color-dodge"/>
<path d="M559.785 413.895L330.273 213.462C292.478 179.072 289.715 120.557 324.081 82.7614L524.514 -146.75C558.904 -184.546 617.419 -187.309 655.215 -152.943L884.727 47.4904C922.522 81.8803 925.285 140.395 890.919 178.191L690.486 407.703C656.096 445.498 597.581 448.261 559.785 413.895Z" stroke="url(#paint16_linear_1106_1241)" stroke-width="2" stroke-miterlimit="10" style="mix-blend-mode:color-dodge"/>
<path d="M868.721 60.9158L666.316 -133.387C630.117 -168.137 572.602 -166.962 537.852 -130.763L343.55 71.6415C308.8 107.84 309.974 165.356 346.173 200.106L548.578 394.408C584.777 429.158 642.292 427.984 677.042 391.785L871.345 189.38C906.094 153.181 904.92 95.6657 868.721 60.9158Z" stroke="url(#paint17_linear_1106_1241)" stroke-width="2" stroke-miterlimit="10" style="mix-blend-mode:color-dodge"/>
<defs>
<linearGradient id="paint0_linear_1106_1241" x1="83.534" y1="50.0502" x2="585.408" y2="405.197" gradientUnits="userSpaceOnUse">
<stop stop-color="#3BAAD0"/>
<stop offset="1" stop-color="#3BAAD0" stop-opacity="0"/>
</linearGradient>
<linearGradient id="paint1_linear_1106_1241" x1="83.534" y1="50.0502" x2="585.408" y2="405.197" gradientUnits="userSpaceOnUse">
<stop stop-color="#3BAAD0"/>
<stop offset="1" stop-color="#3BAAD0" stop-opacity="0"/>
</linearGradient>
<linearGradient id="paint2_linear_1106_1241" x1="83.534" y1="50.0502" x2="585.408" y2="405.197" gradientUnits="userSpaceOnUse">
<stop stop-color="#3BAAD0"/>
<stop offset="1" stop-color="#3BAAD0" stop-opacity="0"/>
</linearGradient>
<linearGradient id="paint3_linear_1106_1241" x1="83.534" y1="50.0502" x2="585.408" y2="405.197" gradientUnits="userSpaceOnUse">
<stop stop-color="#3BAAD0"/>
<stop offset="1" stop-color="#3BAAD0" stop-opacity="0"/>
</linearGradient>
<linearGradient id="paint4_linear_1106_1241" x1="83.534" y1="50.0502" x2="585.408" y2="405.197" gradientUnits="userSpaceOnUse">
<stop stop-color="#3BAAD0"/>
<stop offset="1" stop-color="#3BAAD0" stop-opacity="0"/>
</linearGradient>
<linearGradient id="paint5_linear_1106_1241" x1="83.534" y1="50.0502" x2="585.408" y2="405.197" gradientUnits="userSpaceOnUse">
<stop stop-color="#3BAAD0"/>
<stop offset="1" stop-color="#3BAAD0" stop-opacity="0"/>
</linearGradient>
<linearGradient id="paint6_linear_1106_1241" x1="83.534" y1="50.0502" x2="585.408" y2="405.197" gradientUnits="userSpaceOnUse">
<stop stop-color="#3BAAD0"/>
<stop offset="1" stop-color="#3BAAD0" stop-opacity="0"/>
</linearGradient>
<linearGradient id="paint7_linear_1106_1241" x1="83.534" y1="50.0502" x2="585.408" y2="405.197" gradientUnits="userSpaceOnUse">
<stop stop-color="#3BAAD0"/>
<stop offset="1" stop-color="#3BAAD0" stop-opacity="0"/>
</linearGradient>
<linearGradient id="paint8_linear_1106_1241" x1="83.534" y1="50.0502" x2="585.408" y2="405.197" gradientUnits="userSpaceOnUse">
<stop stop-color="#3BAAD0"/>
<stop offset="1" stop-color="#3BAAD0" stop-opacity="0"/>
</linearGradient>
<linearGradient id="paint9_linear_1106_1241" x1="83.534" y1="50.0502" x2="585.408" y2="405.197" gradientUnits="userSpaceOnUse">
<stop stop-color="#3BAAD0"/>
<stop offset="1" stop-color="#3BAAD0" stop-opacity="0"/>
</linearGradient>
<linearGradient id="paint10_linear_1106_1241" x1="83.534" y1="50.0502" x2="585.408" y2="405.197" gradientUnits="userSpaceOnUse">
<stop stop-color="#3BAAD0"/>
<stop offset="1" stop-color="#3BAAD0" stop-opacity="0"/>
</linearGradient>
<linearGradient id="paint11_linear_1106_1241" x1="83.534" y1="50.0502" x2="585.408" y2="405.197" gradientUnits="userSpaceOnUse">
<stop stop-color="#3BAAD0"/>
<stop offset="1" stop-color="#3BAAD0" stop-opacity="0"/>
</linearGradient>
<linearGradient id="paint12_linear_1106_1241" x1="83.534" y1="50.0502" x2="585.408" y2="405.197" gradientUnits="userSpaceOnUse">
<stop stop-color="#3BAAD0"/>
<stop offset="1" stop-color="#3BAAD0" stop-opacity="0"/>
</linearGradient>
<linearGradient id="paint13_linear_1106_1241" x1="83.534" y1="50.0502" x2="585.408" y2="405.197" gradientUnits="userSpaceOnUse">
<stop stop-color="#3BAAD0"/>
<stop offset="1" stop-color="#3BAAD0" stop-opacity="0"/>
</linearGradient>
<linearGradient id="paint14_linear_1106_1241" x1="83.534" y1="50.0502" x2="585.408" y2="405.197" gradientUnits="userSpaceOnUse">
<stop stop-color="#3BAAD0"/>
<stop offset="1" stop-color="#3BAAD0" stop-opacity="0"/>
</linearGradient>
<linearGradient id="paint15_linear_1106_1241" x1="83.534" y1="50.0502" x2="585.408" y2="405.197" gradientUnits="userSpaceOnUse">
<stop stop-color="#3BAAD0"/>
<stop offset="1" stop-color="#3BAAD0" stop-opacity="0"/>
</linearGradient>
<linearGradient id="paint16_linear_1106_1241" x1="83.534" y1="50.0502" x2="585.408" y2="405.197" gradientUnits="userSpaceOnUse">
<stop stop-color="#3BAAD0"/>
<stop offset="1" stop-color="#3BAAD0" stop-opacity="0"/>
</linearGradient>
<linearGradient id="paint17_linear_1106_1241" x1="83.534" y1="50.0502" x2="585.408" y2="405.197" gradientUnits="userSpaceOnUse">
<stop stop-color="#3BAAD0"/>
<stop offset="1" stop-color="#3BAAD0" stop-opacity="0"/>
</linearGradient>
</defs>
</svg>
