<svg width="25" height="24" viewBox="0 0 25 24" fill="none" xmlns="http://www.w3.org/2000/svg">
<g clip-path="url(#clip0_3101_27)">
<path fill-rule="evenodd" clip-rule="evenodd" d="M12.5 0C19.1274 0 24.5 5.37258 24.5 12C24.5 18.6274 19.1274 24 12.5 24C5.87258 24 0.5 18.6274 0.5 12C0.5 5.37258 5.87258 0 12.5 0ZM17.3 14.4C17.3 15.0628 16.7628 15.6 16.1 15.6C15.4372 15.6 14.9 15.0628 14.9 14.4V11.297L9.74853 16.4485C9.2799 16.9171 8.5201 16.9171 8.05147 16.4485C7.58284 15.9799 7.58284 15.2201 8.05147 14.7515L13.203 9.6H10.1C9.43726 9.6 8.9 9.06274 8.9 8.4C8.9 7.73726 9.43726 7.2 10.1 7.2H15.706C16.5865 7.2 17.3 7.91387 17.3 8.79404V14.4Z" fill="white"/>
</g>
<defs>
<clipPath id="clip0_3101_27">
<rect width="24" height="24" fill="white" transform="translate(0.5)"/>
</clipPath>
</defs>
</svg>
