<svg width="174" height="30" viewBox="0 0 174 30" fill="none" xmlns="http://www.w3.org/2000/svg">
<g clip-path="url(#clip0_3101_34)">
<path d="M144.069 0H150.154V15.5278L165.988 0H173.781L159.002 14.3186L173.781 30H165.681L154.626 18.5605L150.154 22.8791V30H144.069V0Z" fill="#001F59"/>
<path d="M111.363 0H136.91V5.33589H117.447V11.3244H134.683V16.334H117.447V24.6833H137.313V30H111.363V0Z" fill="#001F59"/>
<path d="M87.6967 5.33589H76.6219V0H104.856V5.33589H93.7812V30H87.6967V5.33589Z" fill="#001F59"/>
<path d="M64.7601 0H70.8829V30H64.7601V0Z" fill="#001F59"/>
<path d="M28.6948 0H35.4319L44.856 22.8791L54.2802 0H61.0173L47.8695 30H41.8426L28.6948 0Z" fill="#001F59"/>
<path d="M0 0H25.547V5.33589H6.08445V11.3244H23.3205V16.334H6.08445V24.6833H25.9501V30H0V0Z" fill="#001F59"/>
</g>
<defs>
<clipPath id="clip0_3101_34">
<rect width="174" height="30" fill="white"/>
</clipPath>
</defs>
</svg>
