<svg width="50" height="50" viewBox="0 0 50 50" fill="none" xmlns="http://www.w3.org/2000/svg">
<g clip-path="url(#clip0_1113_307)">
<circle cx="25" cy="25" r="25" fill="white"/>
<path d="M28.1809 24.457C27.8977 24.1739 27.5136 24.0148 27.1131 24.0148C26.7126 24.0148 26.3284 24.1739 26.0452 24.457L24.9773 25.5234C24.6987 25.8119 24.3653 26.0421 23.9968 26.2004C23.6282 26.3587 23.2318 26.442 22.8307 26.4455C22.4296 26.449 22.0318 26.3726 21.6606 26.2207C21.2893 26.0688 20.9521 25.8445 20.6684 25.5608C20.3848 25.2772 20.1605 24.9399 20.0086 24.5687C19.8567 24.1974 19.7803 23.7996 19.7838 23.3985C19.7872 22.9974 19.8706 22.601 20.0289 22.2325C20.1872 21.8639 20.4174 21.5306 20.7059 21.2519L29.2095 12.7453C31.2228 12.2874 33.3292 12.4758 35.2292 13.2839C37.1292 14.0919 38.7261 15.4784 39.7928 17.2462C40.8596 19.0139 41.3418 21.073 41.171 23.1306C41.0002 25.1883 40.185 27.1397 38.8414 28.7074L35.6575 31.9321L28.1809 24.457ZM11.6268 15.3764C13.1897 13.8137 15.234 12.8238 17.4291 12.5667C19.6243 12.3096 21.842 12.8004 23.7237 13.9597L18.5686 19.1162C17.4521 20.2305 16.8157 21.7372 16.7953 23.3145C16.7749 24.8918 17.3722 26.4145 18.4595 27.5572C19.5469 28.7 21.038 29.3722 22.6144 29.4302C24.1907 29.4881 25.7272 28.9273 26.8956 27.8676L27.1131 27.6606L33.5218 34.0678L27.1131 40.4765C26.5466 41.0428 25.7783 41.361 24.9773 41.361C24.1763 41.361 23.4081 41.0428 22.8416 40.4765L11.6252 29.2602C9.78425 27.419 8.75 24.922 8.75 22.3183C8.75 19.7146 9.78576 17.2176 11.6268 15.3764Z" fill="black"/>
<path d="M28.1809 24.457C27.8977 24.1739 27.5136 24.0148 27.1131 24.0148C26.7126 24.0148 26.3284 24.1739 26.0452 24.457L24.9773 25.5234C24.6987 25.8119 24.3653 26.0421 23.9968 26.2004C23.6282 26.3587 23.2318 26.442 22.8307 26.4455C22.4296 26.449 22.0318 26.3726 21.6606 26.2207C21.2893 26.0688 20.9521 25.8445 20.6684 25.5608C20.3848 25.2772 20.1605 24.9399 20.0086 24.5687C19.8567 24.1974 19.7803 23.7996 19.7838 23.3985C19.7872 22.9974 19.8706 22.601 20.0289 22.2325C20.1872 21.8639 20.4174 21.5306 20.7059 21.2519L29.2095 12.7453C31.2228 12.2874 33.3292 12.4758 35.2292 13.2839C37.1292 14.0919 38.7261 15.4784 39.7928 17.2462C40.8596 19.0139 41.3418 21.073 41.171 23.1306C41.0002 25.1883 40.185 27.1397 38.8414 28.7074L35.6575 31.9321L28.1809 24.457ZM11.6268 15.3764C13.1897 13.8137 15.234 12.8238 17.4291 12.5667C19.6243 12.3096 21.842 12.8004 23.7237 13.9597L18.5686 19.1162C17.4521 20.2305 16.8157 21.7372 16.7953 23.3145C16.7749 24.8918 17.3722 26.4145 18.4595 27.5572C19.5469 28.7 21.038 29.3722 22.6144 29.4302C24.1907 29.4881 25.7272 28.9273 26.8956 27.8676L27.1131 27.6606L33.5218 34.0678L27.1131 40.4765C26.5466 41.0428 25.7783 41.361 24.9773 41.361C24.1763 41.361 23.4081 41.0428 22.8416 40.4765L11.6252 29.2602C9.78425 27.419 8.75 24.922 8.75 22.3183C8.75 19.7146 9.78576 17.2176 11.6268 15.3764Z" fill="url(#paint0_linear_1113_307)"/>
</g>
<defs>
<linearGradient id="paint0_linear_1113_307" x1="24.9773" y1="12.5" x2="24.9773" y2="41.361" gradientUnits="userSpaceOnUse">
<stop stop-color="#49CAEB"/>
<stop offset="1" stop-color="#85B6FF"/>
</linearGradient>
<clipPath id="clip0_1113_307">
<rect width="50" height="50" fill="white"/>
</clipPath>
</defs>
</svg>
