<svg width="50" height="50" viewBox="0 0 50 50" fill="none" xmlns="http://www.w3.org/2000/svg">
<g clip-path="url(#clip0_1113_302)">
<circle cx="25" cy="25" r="25" fill="white"/>
<path d="M39.244 30.0369C37.1699 35.9022 31.5756 40.1042 25 40.1042C18.4245 40.1042 12.8303 35.9023 10.7562 30.0371C14.8984 32.5899 19.7772 34.0625 24.9999 34.0625C30.2228 34.0625 35.1017 32.5899 39.244 30.0369ZM38.7841 18.8155C39.6323 20.7031 40.1042 22.7965 40.1042 25C40.1042 25.2536 40.098 25.5055 40.0856 25.7561C35.9512 29.0638 30.7065 31.0417 24.9999 31.0417C19.2935 31.0417 14.0489 29.0638 9.91448 25.7561C9.90213 25.5057 9.89587 25.2536 9.89587 25C9.89587 22.7965 10.3678 20.7031 11.216 18.8155C15.0346 21.747 19.8138 23.4896 25 23.4896C30.1862 23.4896 34.9655 21.747 38.7841 18.8155ZM25 9.89584C30.0466 9.89584 34.5152 12.3709 37.2581 16.1734C33.8987 18.8614 29.637 20.4688 25 20.4688C20.363 20.4688 16.1014 18.8614 12.742 16.1734C15.4848 12.3709 19.9534 9.89584 25 9.89584Z" fill="#09244B"/>
<path d="M39.244 30.0369C37.1699 35.9022 31.5756 40.1042 25 40.1042C18.4245 40.1042 12.8303 35.9023 10.7562 30.0371C14.8984 32.5899 19.7772 34.0625 24.9999 34.0625C30.2228 34.0625 35.1017 32.5899 39.244 30.0369ZM38.7841 18.8155C39.6323 20.7031 40.1042 22.7965 40.1042 25C40.1042 25.2536 40.098 25.5055 40.0856 25.7561C35.9512 29.0638 30.7065 31.0417 24.9999 31.0417C19.2935 31.0417 14.0489 29.0638 9.91448 25.7561C9.90213 25.5057 9.89587 25.2536 9.89587 25C9.89587 22.7965 10.3678 20.7031 11.216 18.8155C15.0346 21.747 19.8138 23.4896 25 23.4896C30.1862 23.4896 34.9655 21.747 38.7841 18.8155ZM25 9.89584C30.0466 9.89584 34.5152 12.3709 37.2581 16.1734C33.8987 18.8614 29.637 20.4688 25 20.4688C20.363 20.4688 16.1014 18.8614 12.742 16.1734C15.4848 12.3709 19.9534 9.89584 25 9.89584Z" fill="url(#paint0_linear_1113_302)"/>
</g>
<defs>
<linearGradient id="paint0_linear_1113_302" x1="25" y1="9.89584" x2="25" y2="40.1042" gradientUnits="userSpaceOnUse">
<stop stop-color="#49CAEB"/>
<stop offset="1" stop-color="#85B6FF"/>
</linearGradient>
<clipPath id="clip0_1113_302">
<rect width="50" height="50" fill="white"/>
</clipPath>
</defs>
</svg>
