<svg width="50" height="50" viewBox="0 0 50 50" fill="none" xmlns="http://www.w3.org/2000/svg">
<g clip-path="url(#clip0_1113_295)">
<circle cx="25" cy="25" r="25" fill="white"/>
<path d="M23.4896 20.1042H26.5105C28.6465 20.1042 29.7145 20.1042 30.3782 20.7677C31.0417 21.4314 31.0417 22.4994 31.0417 24.6354V33.6979C31.0417 31.5619 31.0417 30.4939 31.7052 29.8302C32.3689 29.1667 33.4369 29.1667 35.573 29.1667C37.709 29.1667 38.777 29.1667 39.4407 29.8302C40.1042 30.4939 40.1042 31.5619 40.1042 33.6979V38.2292H31.0417H18.9584H9.89587C9.89587 36.0931 9.89587 35.0251 10.5595 34.3614C11.223 33.6979 12.2911 33.6979 14.4271 33.6979C16.5632 33.6979 17.6312 33.6979 18.2948 34.3614C18.9584 35.0251 18.9584 36.0931 18.9584 38.2292V24.6354C18.9584 22.4994 18.9584 21.4314 19.622 20.7677C20.2855 20.1042 21.3536 20.1042 23.4896 20.1042Z" fill="url(#paint0_linear_1113_295)"/>
<path d="M23.7099 9.56526C24.2839 8.53565 24.5709 8.02084 25 8.02084C25.4291 8.02084 25.7161 8.53565 26.29 9.56526L26.4385 9.83164C26.6015 10.1242 26.6831 10.2705 26.8102 10.367C26.9374 10.4636 27.0957 10.4994 27.4124 10.571L27.7008 10.6363C28.8153 10.8885 29.3727 11.0146 29.5053 11.4409C29.6379 11.8673 29.2579 12.3115 28.4981 13.2L28.3015 13.4299C28.0856 13.6824 27.9776 13.8086 27.929 13.9648C27.8805 14.121 27.8968 14.2894 27.9294 14.6263L27.9592 14.933C28.074 16.1185 28.1315 16.7112 27.7844 16.9747C27.4372 17.2382 26.9155 16.9979 25.872 16.5175L25.602 16.3932C25.3054 16.2566 25.1572 16.1883 25 16.1883C24.8428 16.1883 24.6946 16.2566 24.3979 16.3932L24.128 16.5175C23.0845 16.9979 22.5628 17.2382 22.2155 16.9747C21.8685 16.7112 21.9259 16.1185 22.0408 14.933L22.0705 14.6263C22.1032 14.2894 22.1195 14.121 22.071 13.9648C22.0224 13.8086 21.9144 13.6824 21.6985 13.4299L21.5019 13.2C20.7421 12.3115 20.3622 11.8673 20.4948 11.4409C20.6274 11.0146 21.1846 10.8885 22.2992 10.6363L22.5876 10.571C22.9043 10.4994 23.0626 10.4636 23.1898 10.367C23.3169 10.2705 23.3985 10.1242 23.5615 9.83164L23.7099 9.56526Z" fill="url(#paint1_linear_1113_295)"/>
</g>
<defs>
<linearGradient id="paint0_linear_1113_295" x1="25" y1="20.1042" x2="25" y2="38.2292" gradientUnits="userSpaceOnUse">
<stop stop-color="#49CAEB"/>
<stop offset="1" stop-color="#85B6FF"/>
</linearGradient>
<linearGradient id="paint1_linear_1113_295" x1="25" y1="8.02084" x2="25" y2="17.0833" gradientUnits="userSpaceOnUse">
<stop stop-color="#49CAEB"/>
<stop offset="1" stop-color="#85B6FF"/>
</linearGradient>
<clipPath id="clip0_1113_295">
<rect width="50" height="50" fill="white"/>
</clipPath>
</defs>
</svg>
