<svg width="80" height="80" viewBox="0 0 80 80" fill="none" xmlns="http://www.w3.org/2000/svg">
<g clip-path="url(#clip0_1110_343)">
<circle cx="40" cy="40" r="40" fill="white"/>
<path d="M62.7904 48.0591C59.4718 57.4435 50.521 64.1666 40 64.1666C29.4791 64.1666 20.5284 57.4437 17.2098 48.0593C23.8374 52.1437 31.6435 54.5 39.9998 54.5C48.3564 54.5 56.1627 52.1437 62.7904 48.0591ZM62.0545 30.1047C63.4117 33.1249 64.1667 36.4743 64.1667 40C64.1667 40.4057 64.1568 40.8088 64.1369 41.2098C57.5218 46.502 49.1304 49.6666 39.9998 49.6666C30.8695 49.6666 22.4782 46.502 15.8631 41.2098C15.8433 40.8091 15.8333 40.4057 15.8333 40C15.8333 36.4743 16.5884 33.1249 17.9455 30.1047C24.0554 34.7952 31.7021 37.5833 40 37.5833C48.2979 37.5833 55.9447 34.7952 62.0545 30.1047ZM40 15.8333C48.0746 15.8333 55.2243 19.7934 59.6129 25.8774C54.2378 30.1782 47.4192 32.75 40 32.75C32.5807 32.75 25.7621 30.1782 20.3871 25.8774C24.7756 19.7934 31.9253 15.8333 40 15.8333Z" fill="#09244B"/>
<path d="M62.7904 48.0591C59.4718 57.4435 50.521 64.1666 40 64.1666C29.4791 64.1666 20.5284 57.4437 17.2098 48.0593C23.8374 52.1437 31.6435 54.5 39.9998 54.5C48.3564 54.5 56.1627 52.1437 62.7904 48.0591ZM62.0545 30.1047C63.4117 33.1249 64.1667 36.4743 64.1667 40C64.1667 40.4057 64.1568 40.8088 64.1369 41.2098C57.5218 46.502 49.1304 49.6666 39.9998 49.6666C30.8695 49.6666 22.4782 46.502 15.8631 41.2098C15.8433 40.8091 15.8333 40.4057 15.8333 40C15.8333 36.4743 16.5884 33.1249 17.9455 30.1047C24.0554 34.7952 31.7021 37.5833 40 37.5833C48.2979 37.5833 55.9447 34.7952 62.0545 30.1047ZM40 15.8333C48.0746 15.8333 55.2243 19.7934 59.6129 25.8774C54.2378 30.1782 47.4192 32.75 40 32.75C32.5807 32.75 25.7621 30.1782 20.3871 25.8774C24.7756 19.7934 31.9253 15.8333 40 15.8333Z" fill="url(#paint0_linear_1110_343)"/>
</g>
<defs>
<linearGradient id="paint0_linear_1110_343" x1="40" y1="15.8333" x2="40" y2="64.1666" gradientUnits="userSpaceOnUse">
<stop stop-color="#49CAEB"/>
<stop offset="1" stop-color="#85B6FF"/>
</linearGradient>
<clipPath id="clip0_1110_343">
<rect width="80" height="80" fill="white"/>
</clipPath>
</defs>
</svg>
