<svg width="80" height="80" viewBox="0 0 80 80" fill="none" xmlns="http://www.w3.org/2000/svg">
<g clip-path="url(#clip0_1110_348)">
<circle cx="40" cy="40" r="40" fill="white"/>
<path d="M45.0895 39.1313C44.6363 38.6782 44.0217 38.4237 43.3809 38.4237C42.7401 38.4237 42.1255 38.6782 41.6723 39.1313L39.9637 40.8374C39.5179 41.2991 38.9845 41.6673 38.3948 41.9206C37.8052 42.1739 37.1709 42.3072 36.5292 42.3128C35.8874 42.3184 35.2509 42.1961 34.657 41.9531C34.063 41.7101 33.5233 41.3512 33.0695 40.8973C32.6157 40.4435 32.2568 39.9039 32.0138 39.3099C31.7707 38.7159 31.6484 38.0794 31.654 37.4377C31.6596 36.7959 31.7929 36.1617 32.0462 35.572C32.2995 34.9823 32.6678 34.449 33.1294 34.0031L46.7352 20.3924C49.9565 19.6598 53.3267 19.9613 56.3667 21.2542C59.4067 22.547 61.9618 24.7654 63.6685 27.5938C65.3753 30.4223 66.1469 33.7168 65.8736 37.009C65.6003 40.3012 64.2961 43.4234 62.1463 45.9318L57.052 51.0914L45.0895 39.1313ZM18.6028 24.6023C21.1035 22.1019 24.3743 20.5181 27.8866 20.1067C31.3988 19.6954 34.9472 20.4806 37.9579 22.3354L29.7098 30.5859C27.9234 32.3688 26.9051 34.7796 26.8725 37.3032C26.8399 39.8268 27.7955 42.2631 29.5353 44.0916C31.275 45.92 33.6608 46.9955 36.183 47.0883C38.7051 47.181 41.1635 46.2837 43.0329 44.5881L43.3809 44.257L53.6348 54.5085L43.3809 64.7624C42.4745 65.6686 41.2454 66.1776 39.9637 66.1776C38.6821 66.1776 37.4529 65.6686 36.5466 64.7624L18.6004 46.8163C15.6548 43.8704 14 39.8752 14 35.7093C14 31.5434 15.6572 27.5481 18.6028 24.6023Z" fill="black"/>
<path d="M45.0895 39.1313C44.6363 38.6782 44.0217 38.4237 43.3809 38.4237C42.7401 38.4237 42.1255 38.6782 41.6723 39.1313L39.9637 40.8374C39.5179 41.2991 38.9845 41.6673 38.3948 41.9206C37.8052 42.1739 37.1709 42.3072 36.5292 42.3128C35.8874 42.3184 35.2509 42.1961 34.657 41.9531C34.063 41.7101 33.5233 41.3512 33.0695 40.8973C32.6157 40.4435 32.2568 39.9039 32.0138 39.3099C31.7707 38.7159 31.6484 38.0794 31.654 37.4377C31.6596 36.7959 31.7929 36.1617 32.0462 35.572C32.2995 34.9823 32.6678 34.449 33.1294 34.0031L46.7352 20.3924C49.9565 19.6598 53.3267 19.9613 56.3667 21.2542C59.4067 22.547 61.9618 24.7654 63.6685 27.5938C65.3753 30.4223 66.1469 33.7168 65.8736 37.009C65.6003 40.3012 64.2961 43.4234 62.1463 45.9318L57.052 51.0914L45.0895 39.1313ZM18.6028 24.6023C21.1035 22.1019 24.3743 20.5181 27.8866 20.1067C31.3988 19.6954 34.9472 20.4806 37.9579 22.3354L29.7098 30.5859C27.9234 32.3688 26.9051 34.7796 26.8725 37.3032C26.8399 39.8268 27.7955 42.2631 29.5353 44.0916C31.275 45.92 33.6608 46.9955 36.183 47.0883C38.7051 47.181 41.1635 46.2837 43.0329 44.5881L43.3809 44.257L53.6348 54.5085L43.3809 64.7624C42.4745 65.6686 41.2454 66.1776 39.9637 66.1776C38.6821 66.1776 37.4529 65.6686 36.5466 64.7624L18.6004 46.8163C15.6548 43.8704 14 39.8752 14 35.7093C14 31.5434 15.6572 27.5481 18.6028 24.6023Z" fill="url(#paint0_linear_1110_348)"/>
</g>
<defs>
<linearGradient id="paint0_linear_1110_348" x1="39.9637" y1="20" x2="39.9637" y2="66.1776" gradientUnits="userSpaceOnUse">
<stop stop-color="#49CAEB"/>
<stop offset="1" stop-color="#85B6FF"/>
</linearGradient>
<clipPath id="clip0_1110_348">
<rect width="80" height="80" fill="white"/>
</clipPath>
</defs>
</svg>
