<svg width="80" height="80" viewBox="0 0 80 80" fill="none" xmlns="http://www.w3.org/2000/svg">
<g clip-path="url(#clip0_1110_339)">
<circle cx="40" cy="40" r="40" fill="white"/>
<path d="M37.5833 32.1667H42.4167C45.8343 32.1667 47.5431 32.1667 48.605 33.2283C49.6667 34.2902 49.6667 35.999 49.6667 39.4167V53.9167C49.6667 50.499 49.6667 48.7902 50.7283 47.7283C51.7902 46.6667 53.499 46.6667 56.9167 46.6667C60.3343 46.6667 62.0431 46.6667 63.105 47.7283C64.1667 48.7902 64.1667 50.499 64.1667 53.9167V61.1667H49.6667H30.3333H15.8333C15.8333 57.749 15.8333 56.0402 16.8951 54.9783C17.9568 53.9167 19.6657 53.9167 23.0833 53.9167C26.501 53.9167 28.2099 53.9167 29.2716 54.9783C30.3333 56.0402 30.3333 57.749 30.3333 61.1667V39.4167C30.3333 35.999 30.3333 34.2902 31.3951 33.2283C32.4568 32.1667 34.1657 32.1667 37.5833 32.1667Z" fill="url(#paint0_linear_1110_339)"/>
<path d="M37.9359 15.3044C38.8543 13.657 39.3134 12.8333 40 12.8333C40.6866 12.8333 41.1457 13.657 42.0641 15.3044L42.3016 15.7306C42.5624 16.1987 42.6929 16.4328 42.8964 16.5872C43.0999 16.7417 43.3531 16.799 43.8599 16.9137L44.3212 17.0181C46.1045 17.4216 46.9962 17.6233 47.2084 18.3054C47.4206 18.9876 46.8126 19.6984 45.597 21.12L45.2823 21.4878C44.937 21.8918 44.7642 22.0938 44.6864 22.3437C44.6088 22.5936 44.6349 22.8631 44.6871 23.4021L44.7347 23.8928C44.9184 25.7895 45.0105 26.7379 44.4551 27.1595C43.8995 27.5811 43.0648 27.1967 41.3951 26.4279L40.9633 26.229C40.4886 26.0106 40.2516 25.9013 40 25.9013C39.7484 25.9013 39.5113 26.0106 39.0367 26.229L38.6049 26.4279C36.9352 27.1967 36.1005 27.5811 35.5449 27.1595C34.9896 26.7379 35.0815 25.7895 35.2653 23.8928L35.3129 23.4021C35.3651 22.8631 35.3912 22.5936 35.3136 22.3437C35.2358 22.0938 35.0631 21.8918 34.7176 21.4878L34.4031 21.12C33.1873 19.6984 32.5795 18.9876 32.7916 18.3054C33.0038 17.6233 33.8954 17.4216 35.6788 17.0181L36.1401 16.9137C36.6469 16.799 36.9001 16.7417 37.1036 16.5872C37.3071 16.4328 37.4376 16.1987 37.6984 15.7306L37.9359 15.3044Z" fill="url(#paint1_linear_1110_339)"/>
</g>
<defs>
<linearGradient id="paint0_linear_1110_339" x1="40" y1="32.1667" x2="40" y2="61.1667" gradientUnits="userSpaceOnUse">
<stop stop-color="#49CAEB"/>
<stop offset="1" stop-color="#85B6FF"/>
</linearGradient>
<linearGradient id="paint1_linear_1110_339" x1="40" y1="12.8333" x2="40" y2="27.3333" gradientUnits="userSpaceOnUse">
<stop stop-color="#49CAEB"/>
<stop offset="1" stop-color="#85B6FF"/>
</linearGradient>
<clipPath id="clip0_1110_339">
<rect width="80" height="80" fill="white"/>
</clipPath>
</defs>
</svg>
