<svg width="100" height="100" viewBox="0 0 100 100" fill="none" xmlns="http://www.w3.org/2000/svg">
<g clip-path="url(#clip0_1107_1335)">
<circle cx="50" cy="50" r="50" fill="url(#paint0_linear_1107_1335)"/>
<path fill-rule="evenodd" clip-rule="evenodd" d="M50.13 23.125H49.87C47.6237 23.1249 45.7507 23.1249 44.2638 23.3248C42.6943 23.5358 41.2773 24 40.1386 25.1387C39 26.2773 38.5358 27.6943 38.3248 29.2638C38.1815 30.3297 38.1409 32.8787 38.1295 35.0642C33.0738 35.2293 30.0384 35.8195 27.9289 37.9289C25 40.8579 25 45.572 25 55C25 64.428 25 69.1423 27.9289 72.071C30.8578 75 35.5719 75 44.9999 75H55C64.428 75 69.1422 75 72.071 72.071C75 69.1423 75 64.428 75 55C75 45.572 75 40.8579 72.071 37.9289C69.9615 35.8195 66.9262 35.2293 61.8705 35.0642C61.859 32.8787 61.8185 30.3297 61.6752 29.2638C61.4642 27.6943 61 26.2773 59.8612 25.1387C58.7227 24 57.3057 23.5358 55.7362 23.3248C54.2492 23.1249 52.3762 23.1249 50.13 23.125ZM58.1197 35.0047C58.1085 32.8881 58.0725 30.6102 57.9587 29.7635C57.8035 28.6098 57.5355 28.1161 57.2097 27.7903C56.884 27.4645 56.3902 27.1965 55.2365 27.0414C54.029 26.879 52.41 26.875 50 26.875C47.59 26.875 45.971 26.879 44.7635 27.0414C43.6098 27.1965 43.1161 27.4645 42.7903 27.7903C42.4645 28.1161 42.1964 28.6098 42.0413 29.7635C41.9275 30.6102 41.8915 32.8881 41.8802 35.0047C42.8587 35 43.8971 35 45 35H55C56.103 35 57.1412 35 58.1197 35.0047ZM50 43.125C51.0355 43.125 51.875 43.9645 51.875 45V45.0255C54.597 45.7113 56.875 47.8575 56.875 50.8333C56.875 51.8688 56.0355 52.7083 55 52.7083C53.9645 52.7083 53.125 51.8688 53.125 50.8333C53.125 49.8733 52.0605 48.5418 50 48.5418C47.9395 48.5418 46.875 49.8733 46.875 50.8333C46.875 51.7935 47.9395 53.125 50 53.125C53.4622 53.125 56.875 55.5245 56.875 59.1668C56.875 62.1425 54.597 64.2888 51.875 64.9745V65C51.875 66.0355 51.0355 66.875 50 66.875C48.9645 66.875 48.125 66.0355 48.125 65V64.9745C45.403 64.2888 43.125 62.1425 43.125 59.1668C43.125 58.1313 43.9645 57.2918 45 57.2918C46.0355 57.2918 46.875 58.1313 46.875 59.1668C46.875 60.1268 47.9395 61.4583 50 61.4583C52.0605 61.4583 53.125 60.1268 53.125 59.1668C53.125 58.2065 52.0605 56.875 50 56.875C46.5377 56.875 43.125 54.4758 43.125 50.8333C43.125 47.8575 45.403 45.7113 48.125 45.0255V45C48.125 43.9645 48.9645 43.125 50 43.125Z" fill="white"/>
</g>
<defs>
<linearGradient id="paint0_linear_1107_1335" x1="50" y1="-1.49012e-06" x2="100" y2="91" gradientUnits="userSpaceOnUse">
<stop stop-color="#49CAEB"/>
<stop offset="1" stop-color="#4994EB"/>
</linearGradient>
<clipPath id="clip0_1107_1335">
<rect width="100" height="100" fill="white"/>
</clipPath>
</defs>
</svg>
