<svg width="100" height="100" viewBox="0 0 100 100" fill="none" xmlns="http://www.w3.org/2000/svg">
<g clip-path="url(#clip0_1107_1311)">
<circle cx="50" cy="50" r="50" fill="url(#paint0_linear_1107_1311)"/>
<g clip-path="url(#clip1_1107_1311)">
<path d="M50 44.0713C53.3152 44.0713 56.4946 45.3882 58.8388 47.7325C61.183 50.0767 62.5 53.2561 62.5 56.5713V71.5713H37.5V56.5713C37.5 53.2561 38.817 50.0767 41.1612 47.7325C43.5054 45.3882 46.6848 44.0713 50 44.0713ZM33.22 51.5863C32.8221 52.9283 32.5871 54.3132 32.52 55.7113L32.5 56.5713V71.5713H25V60.3213C24.9995 58.1652 25.7951 56.0849 27.2341 54.4793C28.6731 52.8737 30.6542 51.856 32.7975 51.6213L33.22 51.5863ZM66.78 51.5863C69.0048 51.7219 71.094 52.7012 72.6215 54.3244C74.149 55.9476 74.9997 58.0924 75 60.3213V71.5713H67.5V56.5713C67.5 54.8388 67.25 53.1663 66.78 51.5863ZM33.75 36.5713C35.4076 36.5713 36.9973 37.2298 38.1694 38.4019C39.3415 39.574 40 41.1637 40 42.8213C40 44.4789 39.3415 46.0686 38.1694 47.2407C36.9973 48.4128 35.4076 49.0713 33.75 49.0713C32.0924 49.0713 30.5027 48.4128 29.3306 47.2407C28.1585 46.0686 27.5 44.4789 27.5 42.8213C27.5 41.1637 28.1585 39.574 29.3306 38.4019C30.5027 37.2298 32.0924 36.5713 33.75 36.5713ZM66.25 36.5713C67.9076 36.5713 69.4973 37.2298 70.6694 38.4019C71.8415 39.574 72.5 41.1637 72.5 42.8213C72.5 44.4789 71.8415 46.0686 70.6694 47.2407C69.4973 48.4128 67.9076 49.0713 66.25 49.0713C64.5924 49.0713 63.0027 48.4128 61.8306 47.2407C60.6585 46.0686 60 44.4789 60 42.8213C60 41.1637 60.6585 39.574 61.8306 38.4019C63.0027 37.2298 64.5924 36.5713 66.25 36.5713ZM50 21.5713C52.6522 21.5713 55.1957 22.6249 57.0711 24.5002C58.9464 26.3756 60 28.9191 60 31.5713C60 34.2235 58.9464 36.767 57.0711 38.6424C55.1957 40.5177 52.6522 41.5713 50 41.5713C47.3478 41.5713 44.8043 40.5177 42.9289 38.6424C41.0536 36.767 40 34.2235 40 31.5713C40 28.9191 41.0536 26.3756 42.9289 24.5002C44.8043 22.6249 47.3478 21.5713 50 21.5713Z" fill="white"/>
</g>
</g>
<defs>
<linearGradient id="paint0_linear_1107_1311" x1="50" y1="-1.49012e-06" x2="100" y2="91" gradientUnits="userSpaceOnUse">
<stop stop-color="#49CAEB"/>
<stop offset="1" stop-color="#4994EB"/>
</linearGradient>
<clipPath id="clip0_1107_1311">
<rect width="100" height="100" fill="white"/>
</clipPath>
<clipPath id="clip1_1107_1311">
<rect width="60" height="60" fill="white" transform="translate(20 20)"/>
</clipPath>
</defs>
</svg>
