<svg width="100" height="100" viewBox="0 0 100 100" fill="none" xmlns="http://www.w3.org/2000/svg">
<g clip-path="url(#clip0_1107_1347)">
<circle cx="50" cy="50" r="50" fill="url(#paint0_linear_1107_1347)"/>
<g clip-path="url(#clip1_1107_1347)">
<path d="M30.7598 65.1971H48.0434V71.7309C44.4194 72.383 41.3212 74.8213 39.8567 78.3106L43.4648 79.8248C44.3138 77.802 46.013 76.3273 48.0434 75.7441V79.9998H51.9564V75.7442C53.9868 76.3273 55.686 77.802 56.535 79.8249L60.1431 78.3107C58.6786 74.8214 55.5804 72.3831 51.9564 71.7309V65.1971H69.24V56.0283H30.7598V65.1971Z" fill="white"/>
<path d="M79.8786 38.5468C79.8373 38.5468 79.7957 38.5468 79.7543 38.5468C77.2885 38.5468 74.2482 38.5807 71.4393 40.6684C70.9543 41.0288 70.4943 41.4395 70.0591 41.9008L71.5247 20H28.4754L29.941 41.9008C29.5058 41.4395 29.0458 41.0288 28.5608 40.6684C25.7047 38.5456 22.6141 38.5467 20.1215 38.5468H20V42.4598H20.1223C22.3266 42.4607 24.4101 42.4588 26.2266 43.8089C28.0981 45.1997 29.5392 47.9891 30.5243 52.1154H69.4759C70.4609 47.9891 71.9021 45.1997 73.7735 43.8089C75.5902 42.4588 77.6696 42.4611 79.8778 42.4598H80V38.5468H79.8786Z" fill="white"/>
</g>
</g>
<defs>
<linearGradient id="paint0_linear_1107_1347" x1="50" y1="-1.49012e-06" x2="100" y2="91" gradientUnits="userSpaceOnUse">
<stop stop-color="#49CAEB"/>
<stop offset="1" stop-color="#4994EB"/>
</linearGradient>
<clipPath id="clip0_1107_1347">
<rect width="100" height="100" fill="white"/>
</clipPath>
<clipPath id="clip1_1107_1347">
<rect width="60" height="60" fill="white" transform="translate(20 20)"/>
</clipPath>
</defs>
</svg>
