<svg width="100" height="100" viewBox="0 0 100 100" fill="none" xmlns="http://www.w3.org/2000/svg">
<g clip-path="url(#clip0_1107_1359)">
<circle cx="50" cy="50" r="50" fill="url(#paint0_linear_1107_1359)"/>
<path d="M76.7657 47.2824C75.4733 46.254 73.5921 46.469 72.5643 47.7614L69.1855 52.0096L69.2576 31.201C69.2633 29.5495 67.9291 28.206 66.2778 28.2003C66.2742 28.2003 66.2709 28.2003 66.2673 28.2003C65.1969 28.2003 64.2595 28.7651 63.7314 29.6121L63.7395 27.2876C63.7452 25.6361 62.411 24.2926 60.7597 24.2871C60.7562 24.2871 60.7528 24.2871 60.749 24.2871C59.1025 24.2871 57.7647 25.6191 57.759 27.2671L57.7491 30.1163C57.2252 29.2631 56.2874 28.6907 55.2124 28.687C55.2089 28.687 55.2055 28.687 55.2019 28.687C53.5554 28.687 52.2176 30.019 52.2119 31.6669L52.1947 36.6289C51.6706 35.7756 50.733 35.2032 49.658 35.1995C49.6544 35.1995 49.6511 35.1995 49.6473 35.1995C49.1172 35.1995 48.6203 35.3391 48.1884 35.5813C49.215 36.3673 49.981 37.4778 50.3273 38.7591C53.506 38.8647 56.0681 41.4832 56.0793 44.6868L56.0813 45.2815C59.1669 45.4876 61.6229 48.063 61.6337 51.1992L61.6884 66.9694C64.7789 66.9637 66.413 65.0662 68.5731 62.3871C70.7592 59.6759 77.2447 51.484 77.2447 51.484C78.2725 50.1915 78.0583 48.3102 76.7657 47.2824Z" fill="white"/>
<path d="M34.8193 34.808C35.398 35.3863 36.3351 35.3861 36.9134 34.808C37.4917 34.2296 37.4917 33.2922 36.9134 32.7139L29.6633 25.4638C29.0848 24.8858 28.1475 24.8858 27.5692 25.4638C26.9909 26.0423 26.9909 26.9797 27.5692 27.5579L34.8193 34.808Z" fill="white"/>
<path d="M32.3954 39.0923C32.6436 38.3131 32.213 37.4803 31.4338 37.2322L24.0356 34.8767C23.2564 34.6277 22.4234 35.0591 22.1754 35.8383C21.9273 36.6176 22.3579 37.4503 23.1371 37.6985L30.5353 40.0542C31.3129 40.302 32.1471 39.8727 32.3954 39.0923Z" fill="white"/>
<path d="M39.3373 29.3284C39.5859 30.109 40.4198 30.5378 41.1975 30.29C41.9767 30.0419 42.4073 29.2089 42.1592 28.4299L39.8037 21.0319C39.5557 20.2526 38.7227 19.822 37.9435 20.0702C37.1643 20.3184 36.7337 21.1513 36.9818 21.9304L39.3373 29.3284Z" fill="white"/>
<path d="M55.6821 48.2293C55.6784 48.2293 55.6752 48.2293 55.6715 48.2293C54.5967 48.233 53.6589 48.8054 53.1347 49.6586L53.1175 44.6967C53.1118 43.0488 51.7741 41.7168 50.1275 41.7168C50.124 41.7168 50.1206 41.7168 50.1171 41.7168C49.0421 41.7205 48.1045 42.2928 47.5803 43.1461L47.5704 40.2969C47.5647 38.6491 46.227 37.3171 44.5804 37.3169C44.5769 37.3169 44.5735 37.3169 44.5697 37.3169C42.9183 37.3226 41.5843 38.6661 41.5898 40.3176L41.5979 42.6421C41.0696 41.7953 40.1324 41.2303 39.0619 41.2303C39.0584 41.2303 39.055 41.2303 39.0515 41.2303C37.4 41.236 36.0658 42.5795 36.0715 44.231L36.1436 65.0396L32.7648 60.7913C31.7372 59.4994 29.8561 59.2838 28.5634 60.3124C27.2708 61.3402 27.0564 63.2215 28.0844 64.5138C28.0844 64.5138 34.6019 72.6804 36.756 75.4169C38.7322 77.9274 40.5582 79.9998 43.6547 79.9998C43.6636 79.9998 43.6722 79.9998 43.6811 79.9998L50.8519 79.9749C55.2186 79.9597 58.759 76.3948 58.744 72.0279C58.7284 67.5204 58.6856 55.1631 58.6718 51.209C58.6664 49.5615 57.3285 48.2293 55.6821 48.2293Z" fill="white"/>
</g>
<defs>
<linearGradient id="paint0_linear_1107_1359" x1="50" y1="-1.49012e-06" x2="100" y2="91" gradientUnits="userSpaceOnUse">
<stop stop-color="#49CAEB"/>
<stop offset="1" stop-color="#4994EB"/>
</linearGradient>
<clipPath id="clip0_1107_1359">
<rect width="100" height="100" fill="white"/>
</clipPath>
</defs>
</svg>
