<svg width="100" height="100" viewBox="0 0 100 100" fill="none" xmlns="http://www.w3.org/2000/svg">
<g clip-path="url(#clip0_825_508)">
<circle cx="50" cy="50" r="50" fill="url(#paint0_linear_825_508)"/>
<g clip-path="url(#clip1_825_508)">
<path fill-rule="evenodd" clip-rule="evenodd" d="M64.1862 57.8525C57.815 61.595 50.0637 64.1675 42.8937 65.165C42.4737 66.62 41.5662 67.8575 40.3287 68.6675C42.2487 72.7663 45.0125 76.4938 48.35 79.8688C57.77 80.3188 67.2537 76.3513 73.4825 68.3413C73.5912 68.1988 73.6887 68.0413 73.7937 67.895C72.8787 64.4675 71.3637 61.205 69.5 57.98C69.1625 58.0775 68.84 58.1525 68.5212 58.2125C67.985 58.3625 67.43 58.4675 66.8487 58.4675C65.8925 58.4675 65 58.235 64.1862 57.8525Z" fill="white"/>
<path fill-rule="evenodd" clip-rule="evenodd" d="M53.9412 40.5948C51.5337 38.8435 49.0062 37.276 46.4262 35.8848C45.4812 38.1498 43.2462 39.736 40.6325 39.736C40.1637 39.736 39.7137 39.676 39.275 39.5785C37.7487 45.3348 36.935 51.436 37.3587 57.181C40.2237 57.3985 42.5412 59.4948 43.0587 62.2585C49.415 61.2123 56.0712 58.9623 61.685 55.741C60.9875 54.7248 60.5712 53.5023 60.5712 52.1823C60.5712 50.6335 61.1562 49.2348 62.0825 48.1398C59.63 45.3798 56.8737 42.7285 53.9412 40.5948Z" fill="white"/>
<path fill-rule="evenodd" clip-rule="evenodd" d="M35 57.4584C34.4862 51.3309 35.39 44.7384 37.0287 38.5884C35.4162 37.4484 34.355 35.5809 34.355 33.4546C34.355 32.7159 34.5012 32.0071 34.745 31.3471C32.285 30.8896 29.8175 30.6046 27.3425 30.4209C27.0087 30.8109 26.6487 31.1859 26.3337 31.5984C19.85 39.9384 18.4812 50.6184 21.7212 59.8996C24.6125 61.1334 27.5937 61.9509 30.71 62.3971C31.0962 60.0534 32.78 58.1671 35 57.4584Z" fill="white"/>
<path fill-rule="evenodd" clip-rule="evenodd" d="M72.23 56.3334C72.1212 56.4721 71.99 56.5846 71.87 56.7084C73.4937 59.4684 74.8662 62.2659 75.8187 65.2134C80.0075 58.1259 80.96 49.8421 78.9387 42.2559C78.6012 42.7546 78.2787 43.2571 77.9225 43.7409C76.2875 45.9946 74.6412 48.3046 72.845 50.3859C73.0137 50.9559 73.13 51.5521 73.13 52.1821V52.1971C73.445 53.5996 73.1787 55.1184 72.23 56.3334Z" fill="white"/>
<path fill-rule="evenodd" clip-rule="evenodd" d="M46.865 32.9261C49.8612 34.4786 52.805 36.2936 55.6025 38.3261C58.7525 40.6173 61.7037 43.4748 64.3175 46.4411C65.0937 46.0961 65.945 45.8973 66.8525 45.8973C68.7275 45.8973 70.3962 46.7411 71.5475 48.0423C73.0625 46.1973 74.4837 44.2098 75.9012 42.2673C76.6287 41.2623 77.2962 40.2311 77.9412 39.1923C76.0437 34.2761 72.8637 29.7948 68.4087 26.3261C62.615 21.8186 55.6812 19.7861 48.8787 20.0448C48.4475 20.5923 48.02 21.1323 47.6075 21.6911C46.1037 23.7611 44.8362 25.7411 43.7075 27.8298C43.8537 27.9386 43.9475 28.0773 44.0825 28.2048C45.6462 29.2398 46.6962 30.9573 46.865 32.9261Z" fill="white"/>
<path fill-rule="evenodd" clip-rule="evenodd" d="M30.7963 64.8687C28.13 64.5012 25.5388 63.9462 23.0338 63.0425C24.98 67.0737 27.8263 70.7412 31.6025 73.6775C35.6 76.7862 40.1413 78.7137 44.8063 79.5312C42.0988 76.4675 39.8863 73.1337 38.2325 69.5562C37.8013 69.6462 37.355 69.7062 36.8938 69.7062C33.9238 69.7025 31.4525 67.6362 30.7963 64.8687Z" fill="white"/>
<path fill-rule="evenodd" clip-rule="evenodd" d="M36.9275 28.4071C38.0937 27.1246 39.7887 26.5734 41.4237 26.8471C42.5937 24.6496 43.9137 22.5609 45.4775 20.3896C39.635 21.2821 34.07 23.8996 29.5512 28.1221C31.7637 28.3696 33.9612 28.6471 36.155 29.0671C36.3912 28.8271 36.6537 28.6134 36.9275 28.4071Z" fill="white"/>
</g>
</g>
<defs>
<linearGradient id="paint0_linear_825_508" x1="50" y1="-1.49012e-06" x2="100" y2="91" gradientUnits="userSpaceOnUse">
<stop stop-color="#49CAEB"/>
<stop offset="1" stop-color="#4994EB"/>
</linearGradient>
<clipPath id="clip0_825_508">
<rect width="100" height="100" fill="white"/>
</clipPath>
<clipPath id="clip1_825_508">
<rect width="60" height="60" fill="white" transform="translate(20 20)"/>
</clipPath>
</defs>
</svg>
