<svg width="100" height="100" viewBox="0 0 100 100" fill="none" xmlns="http://www.w3.org/2000/svg">
<g clip-path="url(#clip0_1107_1323)">
<circle cx="50" cy="50" r="50" fill="url(#paint0_linear_1107_1323)"/>
<g clip-path="url(#clip1_1107_1323)">
<path d="M36.8002 61.5995C38.1257 61.2132 39.5136 61.9743 39.9001 63.3C40.2866 64.6255 39.5253 66.0133 38.1998 66.3997C36.9479 66.7648 36.0482 67.1517 35.4717 67.499C36.0684 67.8582 37.0063 68.2575 38.3124 68.6307C41.199 69.4555 45.332 69.999 50 69.999C54.668 69.999 58.801 69.4555 61.6875 68.6307C62.9938 68.2575 63.9315 67.8582 64.5283 67.499C63.9518 67.1517 63.0523 66.7648 61.8003 66.3997C60.4748 66.0133 59.7135 64.6255 60.1 63.3C60.4865 61.9743 61.8743 61.2132 63.1998 61.5995C64.87 62.0865 66.402 62.7118 67.5733 63.5145C68.6638 64.262 70 65.5647 70 67.499C70 69.458 68.6305 70.7695 67.5243 71.5168C66.3305 72.323 64.7678 72.9507 63.0613 73.4382C59.614 74.4232 54.997 74.999 50 74.999C45.003 74.999 40.3861 74.4232 36.9388 73.4382C35.2322 72.9507 33.6694 72.323 32.4758 71.5168C31.3695 70.7695 30 69.458 30 67.499C30 65.5647 31.3364 64.262 32.4267 63.5145C33.598 62.7118 35.1301 62.0865 36.8002 61.5995ZM50 25C60.3553 25 68.75 33.3947 68.75 43.75C68.75 50.1698 65.2513 55.391 61.6255 59.0978C60.0881 60.6695 58.4768 62.0225 56.9926 63.1377C55.5083 64.253 52.1138 66.3413 52.1138 66.3413C50.794 67.0868 49.206 67.0868 47.8863 66.3413C46.5665 65.5958 44.4916 64.253 43.0074 63.1377C41.5232 62.0225 39.9118 60.6695 38.3745 59.0978C34.7488 55.391 31.25 50.1698 31.25 43.75C31.25 33.3947 39.6447 25 50 25ZM50 38.75C47.2385 38.75 45 40.9886 45 43.75C45 46.5115 47.2385 48.75 50 48.75C52.7615 48.75 55 46.5115 55 43.75C55 40.9886 52.7615 38.75 50 38.75Z" fill="white"/>
</g>
</g>
<defs>
<linearGradient id="paint0_linear_1107_1323" x1="50" y1="-1.49012e-06" x2="100" y2="91" gradientUnits="userSpaceOnUse">
<stop stop-color="#49CAEB"/>
<stop offset="1" stop-color="#4994EB"/>
</linearGradient>
<clipPath id="clip0_1107_1323">
<rect width="100" height="100" fill="white"/>
</clipPath>
<clipPath id="clip1_1107_1323">
<rect width="60" height="60" fill="white" transform="translate(20 20)"/>
</clipPath>
</defs>
</svg>
