<svg width="24" height="24" viewBox="0 0 24 24" fill="none" xmlns="http://www.w3.org/2000/svg">
<g clip-path="url(#clip0_3101_10)">
<path d="M19.0415 3.51472L3.48518 19.0711C3.06092 19.4953 3.06092 20.061 3.48518 20.4853C3.90945 20.9095 4.47513 20.9095 4.8994 20.4853L20.4557 4.92893C20.88 4.50467 20.88 3.93898 20.4557 3.51472C20.0315 3.09046 19.4658 3.09046 19.0415 3.51472Z" fill="white"/>
<path d="M20.4558 19.0711L4.89949 3.51472C4.47523 3.09046 3.90954 3.09046 3.48528 3.51472C3.06101 3.93898 3.06101 4.50467 3.48528 4.92893L19.0416 20.4853C19.4659 20.9095 20.0316 20.9095 20.4558 20.4853C20.8801 20.061 20.8801 19.4953 20.4558 19.0711Z" fill="white"/>
</g>
<defs>
<clipPath id="clip0_3101_10">
<rect width="24" height="24" fill="white"/>
</clipPath>
</defs>
</svg>
