<svg width="60" height="60" viewBox="0 0 60 60" fill="none" xmlns="http://www.w3.org/2000/svg">
<g clip-path="url(#clip0_1110_648)">
<path d="M39.7625 60V8.31502C37.4625 2.97752 32.45 3.65752 26.4275 7.02252C28.1675 0.447524 52.5175 -6.05248 59.375 10.155V60H39.7625ZM20.2375 2.44758e-05V51.685C22.5375 57.0225 27.55 56.3425 33.5725 52.9775C31.8325 59.5525 7.4825 66.0525 0.625 49.845V2.44758e-05H20.2375ZM30 39.5425C24.71 39.5425 20.395 35.255 20.395 30C20.395 24.745 24.71 20.4575 30 20.4575C35.29 20.4575 39.605 24.745 39.605 30C39.605 35.255 35.29 39.5425 30 39.5425Z" fill="#EB5C69"/>
</g>
<defs>
<clipPath id="clip0_1110_648">
<rect width="60" height="60" fill="white"/>
</clipPath>
</defs>
</svg>
