<svg width="60" height="60" viewBox="0 0 60 60" fill="none" xmlns="http://www.w3.org/2000/svg">
<g clip-path="url(#clip0_1110_628)">
<path d="M59.1525 29.9925C59.1953 31.0828 59.0176 32.1706 58.6299 33.1905C58.2422 34.2105 57.6525 35.1416 56.8963 35.9282C56.14 36.7148 55.2327 37.3405 54.2288 37.768C53.2248 38.1954 52.1449 38.4157 51.0537 38.4157C49.9626 38.4157 48.8827 38.1954 47.8787 37.768C46.8748 37.3405 45.9675 36.7148 45.2112 35.9282C44.455 35.1416 43.8653 34.2105 43.4776 33.1905C43.0899 32.1706 42.9122 31.0828 42.955 29.9925V16.375H28.775C26.7515 16.1626 24.8784 15.2084 23.517 13.6965C22.1555 12.1846 21.4021 10.2221 21.4021 8.1875C21.4021 6.15293 22.1555 4.19043 23.517 2.67853C24.8784 1.16663 26.7515 0.212438 28.775 9.20663e-09L50.91 9.20663e-09C53.0783 -0.000102494 55.1589 0.855731 56.6996 2.38143C58.2403 3.90712 59.1164 5.97932 59.1375 8.1475L59.1525 29.9925ZM17.215 29.965C17.215 27.7935 16.3524 25.711 14.8169 24.1756C13.2815 22.6401 11.199 21.7775 9.0275 21.7775C6.85604 21.7775 4.77351 22.6401 3.23806 24.1756C1.70261 25.711 0.839996 27.7935 0.839996 29.965C0.839996 32.1365 1.70261 34.219 3.23806 35.7544C4.77351 37.2899 6.85604 38.1525 9.0275 38.1525C11.199 38.1525 13.2815 37.2899 14.8169 35.7544C16.3524 34.219 17.215 32.1365 17.215 29.965ZM30.765 21.765H13.605C16.4875 23.3825 18.465 26.4325 18.465 29.965C18.461 31.5738 18.0448 33.1547 17.2562 34.557C16.4675 35.9592 15.3327 37.136 13.96 37.975H23.14V51.6075C23.0807 52.6747 23.2371 53.7429 23.5999 54.7483C23.9627 55.7537 24.5245 56.6757 25.2516 57.4591C25.9788 58.2425 26.8564 58.8712 27.8321 59.3078C28.8077 59.7444 29.8613 59.9798 30.93 60C32.0214 59.9895 33.1 59.7641 34.1043 59.3366C35.1085 58.9091 36.0187 58.288 36.7828 57.5086C37.5468 56.7292 38.1498 55.8069 38.5573 54.7943C38.9648 53.7818 39.1687 52.6989 39.1575 51.6075V29.87C39.1076 27.6861 38.1983 25.6101 36.627 24.0926C35.0557 22.5752 32.9493 21.7388 30.765 21.765Z" fill="#EB5C69"/>
</g>
<defs>
<clipPath id="clip0_1110_628">
<rect width="60" height="60" fill="white"/>
</clipPath>
</defs>
</svg>
