<svg width="60" height="60" viewBox="0 0 60 60" fill="none" xmlns="http://www.w3.org/2000/svg">
<g clip-path="url(#clip0_1110_642)">
<path d="M50.625 41.25C55.8 41.25 60 45.45 60 50.625C60 55.8 55.8 60 50.625 60C45.45 60 41.25 55.8 41.25 50.625C41.25 45.45 45.45 41.25 50.625 41.25ZM42.6725 0.525018C42.7045 0.37639 42.7865 0.243217 42.9048 0.147687C43.023 0.0521576 43.1705 4.01e-05 43.3225 1.81181e-05H59.7475C59.7902 -0.000495897 59.8323 0.00993492 59.8699 0.0303162C59.9074 0.0506975 59.9391 0.0803498 59.9619 0.116447C59.9847 0.152543 59.9979 0.193881 60.0002 0.236519C60.0025 0.279157 59.9938 0.321675 59.975 0.360018L31.7825 59.645C31.7319 59.7513 31.6522 59.8411 31.5527 59.9039C31.4531 59.9668 31.3378 60.0001 31.22 60H30.525C30.4321 59.9999 30.3404 59.979 30.2566 59.9388C30.1728 59.8986 30.099 59.8402 30.0408 59.7678C29.9825 59.6954 29.9412 59.6108 29.9199 59.5204C29.8985 59.4299 29.8977 59.3358 29.9175 59.245L42.6725 0.525018ZM33.1975 0.525018C33.2295 0.37639 33.3115 0.243217 33.4298 0.147687C33.548 0.0521576 33.6955 4.01e-05 33.8475 1.81181e-05H38.835C38.9345 -4.87872e-05 39.0327 0.0221985 39.1224 0.0651214C39.2122 0.108044 39.2911 0.170549 39.3535 0.248033C39.4159 0.325516 39.4601 0.416005 39.4828 0.512832C39.5056 0.60966 39.5063 0.710361 39.485 0.807518L26.7325 59.5075C26.7024 59.6465 26.6258 59.771 26.5153 59.8605C26.4049 59.9501 26.2672 59.9993 26.125 60H21.05C20.9573 59.9995 20.8658 59.9783 20.7824 59.938C20.6989 59.8976 20.6255 59.8392 20.5675 59.7668C20.5095 59.6944 20.4684 59.61 20.4472 59.5198C20.426 59.4295 20.4253 59.3356 20.445 59.245L33.1975 0.525018ZM28.21 0.380018C28.2639 0.266447 28.3488 0.170469 28.455 0.103213C28.5612 0.0359565 28.6843 0.000175575 28.81 1.81181e-05H29.33C29.4295 -4.87872e-05 29.5277 0.0221985 29.6174 0.0651214C29.7072 0.108044 29.7861 0.170549 29.8485 0.248033C29.9109 0.325516 29.9551 0.416005 29.9778 0.512832C30.0006 0.60966 30.0013 0.710361 29.98 0.807518L17.23 59.5075C17.1998 59.6469 17.1228 59.7717 17.0118 59.8613C16.9009 59.9509 16.7626 59.9998 16.62 60H0.250019C0.207322 60.0005 0.165204 59.9901 0.127682 59.9697C0.0901597 59.9493 0.0584831 59.9197 0.035672 59.8836C0.0128609 59.8475 -0.000324425 59.8062 -0.00262695 59.7635C-0.00492948 59.7209 0.00372752 59.6784 0.0225188 59.64L28.2075 0.380018H28.21ZM9.37502 1.81181e-05C14.55 1.81181e-05 18.75 4.20002 18.75 9.37502C18.75 14.55 14.55 18.75 9.37502 18.75C4.20002 18.75 1.8758e-05 14.55 1.8758e-05 9.37502C1.8758e-05 4.20002 4.20002 1.81181e-05 9.37502 1.81181e-05Z" fill="#EB5C69"/>
</g>
<defs>
<clipPath id="clip0_1110_642">
<rect width="60" height="60" fill="white"/>
</clipPath>
</defs>
</svg>
