<svg width="60" height="60" viewBox="0 0 60 60" fill="none" xmlns="http://www.w3.org/2000/svg">
<g clip-path="url(#clip0_1110_636)">
<path d="M30.0075 5.13456e-06C28.5244 0.000321817 27.0746 0.440361 25.8415 1.26449C24.6085 2.08862 23.6474 3.25985 23.0799 4.6301C22.5124 6.00034 22.3639 7.5081 22.6531 8.96274C22.9424 10.4174 23.6564 11.7536 24.705 12.8025L41.8675 29.965L30.7525 41.3175L35.115 45.9075C35.7869 46.4329 36.3767 47.0556 36.865 47.755L36.895 47.7825L36.8925 47.7875C37.8845 49.2224 38.4156 50.9256 38.415 52.67C38.4148 53.3265 38.3393 53.9808 38.19 54.62L57.565 35.5025C57.6425 35.43 57.7325 35.3775 57.81 35.3025C57.8675 35.245 57.905 35.1725 57.96 35.1125C59.2924 33.6969 60.0217 31.8185 59.9938 29.8746C59.9658 27.9308 59.1826 26.0741 57.81 24.6975L35.31 2.1975C34.6145 1.49991 33.7881 0.946646 32.8781 0.569522C31.9681 0.192398 30.9925 -0.00114937 30.0075 5.13456e-06ZM21.575 5.33251L2.19999 24.5225C0.795789 25.9279 0.00701904 27.8333 0.00701904 29.82C0.00701904 31.8067 0.795789 33.7121 2.19999 35.1175L21.45 54.4925C21.3209 53.8936 21.2564 53.2826 21.2575 52.67C21.2582 50.3953 22.1621 48.214 23.7705 46.6055C25.379 44.9971 27.5603 44.0932 29.835 44.0925C30.531 44.0926 31.2244 44.1774 31.9 44.345L18.0925 29.82L29.02 18.8875L23.82 13.6875C21.5625 11.4275 20.8375 8.23001 21.575 5.33251ZM29.835 45.3425C27.8918 45.3432 26.0284 46.1154 24.6544 47.4894C23.2804 48.8634 22.5082 50.7268 22.5075 52.67C22.5075 54.6136 23.2794 56.4776 24.6535 57.8522C26.0276 59.2268 27.8914 59.9993 29.835 60C31.779 60 33.6434 59.2277 35.0181 57.8531C36.3927 56.4785 37.165 54.614 37.165 52.67C37.1643 50.7264 36.3918 48.8626 35.0172 47.4885C33.6426 46.1144 31.7786 45.3425 29.835 45.3425Z" fill="#EB5C69"/>
</g>
<defs>
<clipPath id="clip0_1110_636">
<rect width="60" height="60" fill="white"/>
</clipPath>
</defs>
</svg>
